<svg width="28" height="28" viewBox="0 0 28 28" fill="none" xmlns="http://www.w3.org/2000/svg">
<path d="M22.1795 16.8425C22.4203 17.0867 22.5556 17.4178 22.5556 17.7629C22.5556 18.108 22.4203 18.4391 22.1795 18.6833L14.8932 26.0636C14.6521 26.3075 14.3253 26.4445 13.9845 26.4445C13.6438 26.4445 13.3169 26.3075 13.0759 26.0636L5.78951 18.6833C5.5625 18.4362 5.43888 18.1097 5.44464 17.7722C5.45039 17.4348 5.58507 17.1127 5.82037 16.8738C6.05628 16.6355 6.37422 16.499 6.70736 16.4932C7.04051 16.4874 7.36291 16.6126 7.60681 16.8425L12.6987 22.0001L12.6987 2.85797C12.6987 2.51256 12.8342 2.18128 13.0753 1.93704C13.3164 1.69279 13.6435 1.55557 13.9845 1.55557C14.3255 1.55557 14.6526 1.69279 14.8937 1.93704C15.1349 2.18128 15.2703 2.51256 15.2703 2.85797L15.2703 22.0001L20.3622 16.8425C20.6033 16.5986 20.9301 16.4616 21.2709 16.4616C21.6116 16.4616 21.9384 16.5986 22.1795 16.8425Z" fill="white"/>
</svg>
