<svg width="22" height="16" viewBox="0 0 22 16" fill="none" xmlns="http://www.w3.org/2000/svg">
<path opacity="0.8" d="M0 16V11.2462C0 9.89638 0.277311 8.51719 0.831933 7.10866C1.38655 5.70014 2.11835 4.37231 3.02731 3.12517C3.93627 1.87804 4.92227 0.836312 5.98529 0L10.3298 2.44292C9.46709 3.73407 8.7584 5.08391 8.20378 6.49243C7.66456 7.90096 7.39496 9.47088 7.39496 11.2022V16H0ZM11.6702 16V11.2462C11.6702 9.89638 11.9475 8.51719 12.5021 7.10866C13.0567 5.70014 13.7885 4.37231 14.6975 3.12517C15.6064 1.87804 16.5924 0.836312 17.6555 0L22 2.44292C21.1373 3.73407 20.4286 5.08391 19.8739 6.49243C19.3347 7.90096 19.0651 9.47088 19.0651 11.2022V16H11.6702Z" fill="#F12D2F"/>
</svg>
