<svg width="294" height="80" viewBox="0 0 294 80" fill="none" xmlns="http://www.w3.org/2000/svg">
<g clip-path="url(#clip0_132_336)">
<path d="M35.1526 8.62793V71.3154L27.2891 66.8215V31.4749L20.2236 41.5799L15.476 35.3543V60.1441L7.61249 55.6703V24.3302L15.476 19.8564L20.2236 26.0218L27.2891 13.1053L35.1526 8.62793Z" fill="white"/>
<path fill-rule="evenodd" clip-rule="evenodd" d="M35.1316 -0.000488281L70.2692 19.9975V60.0017L35.1343 79.9998L0 60.0017V19.9977L35.1316 -0.000488281ZM35.1319 5.94184L5.2194 22.9691V57.0302L35.1344 74.0575L65.0498 57.0302V22.9692L35.1319 5.94184Z" fill="white"/>
<path d="M62.6568 24.1307V49.2793L42.9979 60.4717V12.9424L62.6568 24.1307Z" fill="white"/>
</g>
<path d="M281.24 33.1294H273.836V28.7998H294V33.1294H286.595V51.7598H281.24V33.1294Z" fill="white"/>
<path d="M257.308 28.7998H262.663V51.7598H257.308V28.7998Z" fill="white"/>
<path d="M229.089 28.7998H234.444V47.4302H246.047V51.7598H229.089V28.7998Z" fill="white"/>
<path fill-rule="evenodd" clip-rule="evenodd" d="M205.708 46.8C209.479 46.8 212.552 43.7643 212.552 40C212.552 36.2357 209.479 33.2 205.708 33.2C201.937 33.2 198.864 36.2357 198.864 40C198.864 43.7643 201.937 46.8 205.708 46.8ZM205.708 52C212.387 52 217.802 46.6274 217.802 40C217.802 33.3726 212.387 28 205.708 28C199.029 28 193.614 33.3726 193.614 40C193.614 46.6274 199.029 52 205.708 52Z" fill="white"/>
<path d="M182.183 28.7998V51.7598H177.787L166.25 37.8198V51.7598H160.961V28.7998H165.391L176.894 42.7398V28.7998H182.183Z" fill="white"/>
<path fill-rule="evenodd" clip-rule="evenodd" d="M137.58 46.8C141.351 46.8 144.424 43.7643 144.424 40C144.424 36.2357 141.351 33.2 137.58 33.2C133.809 33.2 130.736 36.2357 130.736 40C130.736 43.7643 133.809 46.8 137.58 46.8ZM137.58 52C144.259 52 149.674 46.6274 149.674 40C149.674 33.3726 144.259 28 137.58 28C130.901 28 125.486 33.3726 125.486 40C125.486 46.6274 130.901 52 137.58 52Z" fill="white"/>
<path d="M109.095 51.7598L109.062 37.9838L101.129 46.5598L93.063 38.279V51.7598H88.0385V28.7998H92.468L101.129 39.0678L109.657 28.7998H114.054L114.12 51.7598H109.095Z" fill="white"/>
<defs>
<clipPath id="clip0_132_336">
<rect width="70.2692" height="80" fill="white"/>
</clipPath>
</defs>
</svg>
